<svg version="1" xmlns="http://www.w3.org/2000/svg" width="933.333" height="933.333" viewBox="0 0 700.000000 700.000000"><path d="M327.8.4c-.1.2-4.2.6-8.9 1s-9.5.8-10.5 1c-1 .2-4.5.7-7.8 1.1-7.4.9-21.6 3.6-31.6 6-.8.2-4.6 1.1-8.5 2-27 6.4-67.1 23.7-95 40.9-53.5 33.2-99 82.8-127.6 139.3-12.9 25.5-25.2 59.6-29.4 81.4-.3 1.3-1.1 5.8-2 9.9-2.9 14.7-3.6 20-5.2 37-1.5 16.5-.8 59.2 1.2 71.1.2 1.3.6 4.6.9 7.4.9 7.8 2.2 15.2 5.1 28.5 2.1 9.7 9.1 34 11.4 39.5.5 1.1 2.3 5.8 4.1 10.5 1.7 4.7 4.6 11.8 6.3 15.7l3.2 7.3h155.8l-2-2.2C171 479.5 155.5 455.1 147 434c-1.2-3-2.6-6.6-3.2-8-3.2-8-9.1-30.1-10.2-38-.3-2.5-.9-5.8-1.1-7.3-2.1-11-2.7-43.8-1.1-54.7 1.4-8.8 2-12.5 4.2-24.5.3-1.7 1.2-5.4 2-8.2.9-2.9 1.5-5.5 1.5-5.8 0-.9 6.9-19.9 8.6-23.5 10.3-22.4 23.5-43.6 35.5-57.1 23.7-26.7 48.8-45.2 79.3-58.4 17-7.4 36.5-13.2 49.9-15 2.7-.3 5.2-.8 5.5-.9.6-.4 11.6-1.4 21.6-2.1 10.2-.6 66.9-2.8 103-4 18.5-.6 48.4-1.6 61-2 6.6-.2 19.7-.7 29-1 9.4-.3 23.3-.7 31-1 7.7-.3 22.1-.7 32-1.1 9.9-.3 18.1-.7 18.3-.9.4-.4-8.7-10.3-19.3-20.8-21.4-21.1-51.2-43.2-77.5-57.3-1.9-1-4.3-2.6-5.4-3.4-1-.8-2.1-1.4-2.5-1.4-.3.1-4.9-1.9-10.1-4.3-35.1-16.4-72.3-27-108.5-30.9-2.7-.3-6.3-.8-8-1-3.5-.5-54.1-1.4-54.7-1z"/><path d="M350 348c0 149.8.2 182 1.3 182 2.2 0 14-2.2 21.7-4 17.8-4.2 44.4-15.7 58.5-25.3 10.5-7.1 11.9-8.1 18-13.2 29.7-24.5 51.8-59.1 60.9-95.4 2.4-9.2 2.8-11.4 4.6-24.1 1.2-8.4.9-33.6-.5-43.2-5.9-39.5-22.6-73.8-49.6-101.9-28.7-29.7-69.1-50.3-110.6-56.4l-4.3-.6V348z"/><path d="M513.1 202.7c1.3 1.6 3.1 3.5 4 4.5 2.9 3 15.4 20.2 19.7 27.1 31.8 51 41 114.8 25.1 173.7-2.4 8.7-6.9 22-7.9 23.5-.4.5-1.1 2.1-1.5 3.5-1.5 5.1-11.9 24.8-18.2 34.5-17.4 26.7-41.7 50.5-68.6 67.2-9.3 5.7-29.5 15.8-37.7 18.8-6.1 2.2-26.9 8.4-30 9-1.4.2-5 .9-8 1.6-3 .6-6.6 1.2-8 1.3-1.4.2-5.2.6-8.5 1-6.3.7-13 1.1-36.5 2.1-24.7 1-34.9 1.4-52 2-9.1.3-21.9.7-28.5 1-6.6.2-21 .7-32 1-23.7.7-37.8 1.2-57.5 1.9-8 .3-23.3.8-34 1.1-33 1-46.4 1.5-46.8 1.9-.4.4 6.6 8.1 15.4 17 54.1 54.3 125.2 90 199.3 100.2 2.5.3 5.7.7 7 1 19.7 3 69.6 2.5 90.8-1 2.1-.4 5.3-.8 7-1.1 13-1.5 41.9-8.8 59.3-14.9 20.4-7.2 54.7-23.1 61.7-28.6 1.4-1.1 3-2 3.5-2s1.4-.4 2.1-1c.7-.5 6.4-4.4 12.7-8.6 24.7-16.4 49.1-37.7 67.3-58.9 3.3-3.9 6.3-7.2 6.7-7.5.4-.3 4.4-5.5 9-11.5 15.2-20 28.4-41.7 38.8-63.8 2.3-4.9 4.2-9.1 4.2-9.3 0-.2 1.1-2.7 2.4-5.6 5.7-12.7 15.1-42.1 18.2-57.3 1.7-8.1 5.4-30.1 5.9-35 .4-3.3.9-7.1 1.1-8.5.9-4.8 1.1-52.6.3-61.2-.8-8.4-1.7-17.1-2.4-21.3-.1-1.1-.6-4.3-1-7-.3-2.8-.9-5.8-1.1-6.7-.3-1-.7-3-1-4.5-3.4-19.2-11.5-45.9-20.1-66.2-2.5-5.8-5-11.8-5.6-13.4l-1.1-2.7H510.7l2.4 2.7z"/></svg>