<?xml version="1.0" encoding="UTF-8" standalone="no"?>
<svg
   xmlns:svg="http://www.w3.org/2000/svg"
   xmlns="http://www.w3.org/2000/svg"
   width="16"
   height="16"
   version="1.1">
  <path
     d="m 7.045756,15.5636 c 0.2704,0.2706 0.58451,0.4015 0.95074,0.4015 0.37516,0 0.68462,-0.1352 0.94216,-0.4015 0.25718,-0.2661 0.39246,-0.5762 0.39246,-0.9426 h -2.67782 c 0,0.3664 0.13081,0.6806 0.39246,0.9426 z" />
  <path
     d="m 15.907166,13.3901 c -0.6247,-0.9216 -1.0942,-1.9104 -1.413,-2.9505 -0.318,-1.0374 -0.6012,-2.54015 -0.8549,-4.50399 -0.1475,-1.14359 -0.6154,-2.10837 -1.134,-2.73219 -0.2577,-0.31025 -0.5515,-0.59087 -0.8897,-0.83798 -0.6649,-0.48602 -1.2038,-0.71582 -1.83184,-0.89906 C 9.696646,1.05613 9.485626,0.717776 9.147116,0.445148 8.813836,0.176626 8.431796,0.0349 7.995606,0.0349 c -0.42745,0 -0.81115,0.13966 -1.14258,0.410248 -0.33162,0.270563 -0.54096,0.610982 -0.62806,1.021232 -0.62807,0.18324 -1.16994,0.40894 -1.84061,0.89906 -0.33235,0.243 -0.62822,0.52345 -0.88969,0.83798 -0.51488,0.61956 -0.97751,1.58863 -1.12525,2.73219 -0.25348,1.96384 -0.5447,3.464 -0.86346,4.50399 -0.31803,1.0375 -0.783429,2.0263 -1.40441,2.9505 -0.059358,0.0885 -0.096012,0.1744 -0.096012,0.2706 0,0.0785 0.016564,0.1489 0.06103,0.227 0.095097,0.1664 0.235601,0.2531 0.427442,0.2531 h 15.02066 c 0.1919,0 0.3315,-0.0874 0.4275,-0.2531 0.0348,-0.0786 0.0523,-0.1572 0.0523,-0.2358 0,-0.0961 -0.0315,-0.1795 -0.0873,-0.2618 z M 1.366396,13.1718 c 0.52327,-0.899 0.92038,-1.8864 1.19507,-2.9417 0.27502,-1.05713 0.52476,-2.45376 0.76744,-4.17235 0.21101,-1.49365 0.88877,-2.43218 1.73581,-2.99401 0.60108,-0.39851 1.11541,-0.60709 1.71853,-0.74189 0.21697,-0.0486 0.35766,-0.24431 0.35766,-0.46256 V 1.8418 c 0,-0.46332 0.39246,-0.837985 0.8547,-0.837985 0.47974,0 0.85488,0.375425 0.85488,0.837985 v 0.01749 c 0,0.21825 0.15503,0.40876 0.37514,0.46256 0.60016,0.14693 1.12284,0.33501 1.70964,0.74189 0.2942,0.2041 0.5549,0.43053 0.7763,0.68954 0.4502,0.52664 0.8276,1.33574 0.9595,2.30444 0.2343,1.71972 0.4885,3.10743 0.7676,4.16368 0.2792,1.0562 0.6804,2.0426 1.2039,2.9504 z" />
</svg>
